Patient4_TMGait_0pt7_01_left_44_EMG.mot
version=1
nRows=23
nColumns=33
inDegrees=no
endheader
time	1LAddLong	2LGlutMax	3LGlutMed	4LIliopsoas	5LSemiMemb	6LBicFemLong	7LRecFem	8LVastMed	9LVastLat	10LGasMed	11LTibAnt	12lTibPost	13LPeroneusLong	14LSol	15LExtDigLong	16LFlexDigLong	17RAddLong	18RGlutMax	19RGlutMed	20RIliopsoas	21RSemiMemb	22RBicFemLong	23RRecFem	24RVastMed	25RVastLat	26RGasMed	27RTibAnt	28RTibPost	29RPeroneusLong	30RSol	31RExtDigLong	32RFlexDigLong
51.83	0.011139	0.074463	0.074158	0.010071	0.07431	-0.00946	-0.20523	-0.005341	-0.053406	-0.82626	-0.013428	0.093536	0.002899	-0.8551	-0.084381	0.112	-0.1149	-0.061035	-0.13855	-0.11765	0.29587	0.21088	-0.12222	0.504	-0.074463	-0.00412	-0.065155	-0.009613	0.041504	0.34668	-0.003815	0.002136
51.831	0.010376	0.10101	0.081177	0.003662	0.10895	-0.025787	-0.17151	0.000916	-0.050964	-0.13153	-0.009613	-0.22797	-0.025787	-0.76691	-0.079193	0.11261	-0.058136	-0.041962	-0.15289	-0.025177	0.21271	0.068817	0.062408	0.10651	-0.024567	-0.001526	-0.087738	-0.009766	0.049744	0.33279	-0.016937	0.005188
51.832	0.016937	0.10223	0.059814	-0.005493	0.070953	0.079956	-0.17166	0.006714	-0.054321	-0.000916	0.005646	-0.17349	-0.10712	-0.51682	-0.043182	-0.15213	-0.052795	-0.083008	-0.14282	0.027161	0.090485	0.005646	0.094757	-0.082703	0.080566	-0.008698	-0.040436	-0.010071	0.015717	0.32761	-0.003357	-0.00351
51.833	-0.001373	0.10986	0.058289	-0.004578	0.018921	0.13046	-0.15854	0.008087	-0.053101	-0.17258	0.007324	-0.16678	-0.12848	0.003815	-0.0354	-0.020599	-0.030212	-0.12405	-0.14038	0.077057	-0.092468	0.003815	0.05661	-0.27954	0.020905	-0.011444	0.072784	-0.009003	-0.027618	0.30853	0.002289	0.003967
51.834	0.005341	0.085754	0.06546	-0.01236	-0.023651	0.078735	-0.17944	0.00412	-0.055237	-0.21393	-0.006866	-0.025635	0.043793	0.103	-0.032196	0.15366	-0.017548	-0.04776	-0.11429	-0.047302	-0.15839	0.018616	0.22675	-0.39749	-0.021667	-0.010834	0.13794	-0.002289	-0.067291	0.20874	-0.001678	-0.00946
51.835	0.000153	0.10086	0.16312	0.01236	-0.021515	-0.000763	-0.16937	0.002289	-0.032654	-0.003052	-0.001526	0.028992	0.12177	0.18982	-0.059052	-0.49942	-0.010376	-0.041046	-0.083923	-0.16449	-0.21347	0.068359	0.29114	-0.28351	0.025635	-0.005951	0.13702	-0.002747	-0.023956	0.1265	-0.002441	-0.009766
51.836	0.011597	0.10391	0.19547	-0.004883	-0.02182	-0.086975	-0.14038	-0.00885	-0.02182	-0.095978	0.007782	-0.010681	0.14694	0.44678	-0.057373	0.40237	-0.003967	-0.025024	-0.18234	-0.13901	0.10284	0.003357	0.19394	-0.15274	0.071411	-0.003662	0.094452	-0.002747	-0.10819	0.083466	-0.003815	-0.001984
51.837	0.009918	0.091553	0.2121	-0.016327	-0.02121	-0.052643	-0.1326	-0.001068	-0.057831	-0.20798	-0.011444	0.010223	0.12634	0.011292	-0.049286	0.35645	0.003357	-0.011292	-0.14847	-0.041504	0.30685	-0.064392	0.21683	-0.015259	0.15228	-0.005798	0.088196	0.005646	-0.15381	0.010223	-0.002899	-0.012512
51.838	-0.006104	0.078735	0.16434	-0.002441	0.002441	-0.055237	-0.14542	0.007019	-0.013733	0.030212	0.003815	-0.024414	0.044403	-0.2655	-0.007935	-0.18753	0.02243	0.015869	-0.17395	0.049896	0.25742	-0.068665	0.27786	-0.092773	0.15305	-0.005798	0.23987	0.002747	0.24628	0.006866	0.006866	-0.011292
51.839	0.00351	0.082092	0.1297	0.015106	0.033569	-0.070801	-0.12085	0.004272	-0.006409	0.35263	0.00061	-0.005341	-0.052185	-0.069885	0.019836	-0.006104	0.003357	0.02533	-0.20096	0.22995	0.19043	-0.041199	0.23377	-0.079346	0.17731	-0.007324	0.39383	0.000763	0.88852	-0.010223	-0.001373	-0.014343
51.84	0.002594	0.080109	0.121	-0.005341	-0.017548	0.033417	-0.12054	0.004578	-0.007629	0.18173	0.014343	0.094299	-0.11429	0.13245	0.051117	0.04837	-0.040283	0.045624	-0.26794	0.23239	0.26382	0.11398	0.029144	-0.031281	0.18997	-0.004272	0.54718	0.001221	0.13763	-0.047607	-0.00351	-0.014801
51.841	0.00412	0.080261	0.11917	-0.005798	-0.065002	0.086823	-0.12497	0.001526	0.001678	-0.32654	0.001068	0.26749	-0.15884	0.29434	0.046692	0.007172	-0.036621	0.015717	-0.39291	0.077667	0.23727	0.020905	-0.1033	-0.099335	0.24185	0.005035	0.68375	0.00473	-0.7634	-0.16174	-0.004578	-0.018921
51.842	0.010376	0.086823	0.1088	-0.00885	-0.038757	0.032806	-0.14633	-0.001221	0.007782	-0.34119	-0.007172	-0.29419	-0.17059	0.47592	0.045166	-0.1355	0.013733	0.084839	-0.52948	0.004272	0.10132	-0.05249	0.08606	-0.16815	0.19379	0.003357	0.48416	0.003967	-0.57404	-0.16647	-0.002136	-0.006866
51.843	0.012054	0.11917	0.13001	-0.009003	-0.010834	-0.017853	-0.16708	-0.006256	0.005341	-0.35904	-0.005493	0.02655	-0.12726	0.42938	0.027466	0.046082	0.07782	0.13473	-0.35233	-0.041504	0.14542	-0.10437	0.12787	-0.13138	-0.001068	0.003204	0.24826	0.000153	-0.19089	-0.17014	-0.00351	-0.011444
51.844	0.022125	0.078125	0.17716	-0.001526	0.023804	-0.07309	-0.15457	-0.005035	-0.007629	-0.31708	-0.007324	0.066071	-0.10635	0.29755	0.012817	0.042725	0.071411	0.090942	-0.35934	-0.036316	0.21698	-0.12741	0.1387	-0.12238	-0.00824	0.007477	-0.2623	0.001068	-0.030212	-0.15656	0.000153	-0.003357
51.845	0.014191	0.00946	0.17441	0.013123	0.044708	-0.13733	-0.08255	0.005798	-0.02594	-0.31265	-0.009918	0.038757	-0.045166	0.2681	0.00824	-0.029907	0.042725	0.13855	-0.27908	-0.091248	0.20233	-0.10254	0.10254	-0.16617	-0.12466	0.012665	-0.53467	0.006256	-0.12009	-0.26138	-0.002747	-0.011292
51.846	0.007019	0.043335	0.10422	0.005188	0.080261	-0.14801	-0.060577	0.001526	-0.031128	-0.33966	-0.007172	0.03067	-0.029297	0.41657	0.018768	-0.051727	0.036316	0.15045	-0.011749	-0.073242	0.13733	-0.030823	-0.054626	-0.036774	-0.10971	0.010834	-0.57342	-0.001068	-0.034943	-0.22614	-0.004272	-0.005798
51.847	0.013733	0.060272	0.093231	0.001068	0.021515	-0.15549	-0.058441	0.00473	-0.029297	-0.10407	-0.005188	0.082092	-0.074768	0.29159	0.02655	0.13107	0.048676	0.091705	0.36835	-0.002441	-0.009308	0.005493	-0.082703	0.029449	-0.11337	0.011902	-0.4068	0.000916	0.028992	-0.093384	-0.003815	0.000916
51.848	0.000458	0.062866	0.12054	-0.002441	-0.093994	-0.15442	-0.054779	0.010071	-0.033112	0.13367	-0.001984	0.031891	-0.16922	0.089569	0.031738	-0.018463	0.05188	0.081024	0.56976	0.037994	-0.10529	-0.000305	-0.19257	0.073547	-0.084076	0.003815	-0.18463	0.010071	0.080109	0.020599	0	-0.010529
51.849	0.005341	0.088654	0.10468	-0.014343	-0.13245	-0.17456	-0.046539	0.007019	-0.03006	0.17639	-0.008698	-0.040283	0.037079	0.14801	0.020599	-0.12787	-0.012665	0.089111	0.23987	0.055695	0.16022	-0.071411	-0.27573	0.1059	-0.14404	-0.005646	-0.10437	0.00473	-0.007629	0.028534	-0.003357	0.001526
51.85	0.006409	0.12222	0.13336	0.017853	-0.034485	-0.14175	-0.07019	0.006866	-0.023041	0.30029	-0.011139	0.02182	0.22293	0.025787	-0.013428	0.075073	-0.033875	0.2092	0.13825	-0.14358	0.21545	-0.11673	-0.28366	0.086365	-0.081787	-0.005798	0.016937	0.003815	-0.00473	0.10071	-0.003052	0.002136
51.851	-0.00061	0.1535	0.1033	0.015259	0.08667	0.10056	-0.074005	-0.003357	-0.013123	0.4248	-0.004425	0.045471	0.30472	-0.55405	-0.028229	-0.042725	-0.034485	0.29236	0.20264	-0.2388	0.15472	-0.1767	-0.12833	-0.18356	0.015411	-0.003357	0.25848	0.003662	0.075989	0.081635	-0.001526	-0.001373
51.852	-0.001068	0.17609	0.048828	0.014954	0.030365	0.21408	-0.059509	0.00885	-0.012512	-0.03418	-0.014191	0.02182	0.20401	-0.67581	-0.091248	-0.12283	-0.022278	0.39444	0.1564	-0.18051	0.17502	-0.23575	-0.12054	-0.37552	0.44128	-0.002441	0.56412	0.00473	-0.29831	0.052338	-0.002289	-0.005951
